<svg width="183" height="100" viewBox="0 0 183 100" fill="none" xmlns="http://www.w3.org/2000/svg">
<path d="M58.212 32V23.6H61.08C61.28 23.6 61.496 23.614 61.728 23.642C61.964 23.67 62.196 23.724 62.424 23.804C62.656 23.884 62.864 24 63.048 24.152C63.236 24.304 63.386 24.502 63.498 24.746C63.61 24.99 63.666 25.292 63.666 25.652C63.666 26.06 63.592 26.404 63.444 26.684C63.296 26.96 63.118 27.174 62.91 27.326C62.706 27.474 62.518 27.562 62.346 27.59C62.502 27.606 62.676 27.656 62.868 27.74C63.064 27.824 63.248 27.946 63.42 28.106C63.596 28.266 63.74 28.472 63.852 28.724C63.968 28.972 64.026 29.272 64.026 29.624C64.026 30.14 63.926 30.574 63.726 30.926C63.526 31.278 63.246 31.546 62.886 31.73C62.53 31.91 62.114 32 61.638 32H58.212ZM59.664 30.908H61.134C61.41 30.908 61.656 30.862 61.872 30.77C62.088 30.678 62.256 30.532 62.376 30.332C62.5 30.128 62.562 29.86 62.562 29.528C62.562 29.18 62.49 28.91 62.346 28.718C62.202 28.526 62.02 28.394 61.8 28.322C61.58 28.246 61.356 28.208 61.128 28.208H59.664V30.908ZM59.664 27.128H60.924C61.164 27.128 61.384 27.082 61.584 26.99C61.784 26.898 61.944 26.758 62.064 26.57C62.184 26.382 62.244 26.144 62.244 25.856C62.244 25.624 62.212 25.434 62.148 25.286C62.084 25.134 61.992 25.014 61.872 24.926C61.752 24.838 61.608 24.778 61.44 24.746C61.276 24.71 61.09 24.692 60.882 24.692H59.664V27.128ZM68.0207 32.132C67.6847 32.132 67.3747 32.088 67.0907 32C66.8067 31.916 66.5587 31.79 66.3467 31.622C66.1387 31.454 65.9767 31.248 65.8607 31.004C65.7447 30.756 65.6867 30.472 65.6867 30.152C65.6867 29.884 65.7347 29.646 65.8307 29.438C65.9307 29.23 66.0647 29.052 66.2327 28.904C66.4007 28.752 66.5907 28.628 66.8027 28.532C67.0187 28.436 67.2447 28.366 67.4807 28.322C67.7207 28.278 67.9587 28.256 68.1947 28.256C68.4707 28.256 68.7207 28.284 68.9447 28.34C69.1727 28.392 69.3647 28.46 69.5207 28.544C69.6807 28.624 69.7947 28.702 69.8627 28.778V28.046C69.8627 27.854 69.8227 27.692 69.7427 27.56C69.6667 27.424 69.5607 27.314 69.4247 27.23C69.2927 27.146 69.1387 27.086 68.9627 27.05C68.7907 27.01 68.6107 26.99 68.4227 26.99C68.2227 26.99 68.0287 27.008 67.8407 27.044C67.6567 27.08 67.4847 27.126 67.3247 27.182C67.1647 27.238 67.0187 27.298 66.8867 27.362C66.7587 27.426 66.6527 27.49 66.5687 27.554L65.9387 26.48C66.0827 26.38 66.2847 26.284 66.5447 26.192C66.8087 26.096 67.1087 26.016 67.4447 25.952C67.7807 25.888 68.1347 25.856 68.5067 25.856C68.7667 25.856 69.0287 25.876 69.2927 25.916C69.5567 25.956 69.8087 26.022 70.0487 26.114C70.2887 26.206 70.5027 26.33 70.6907 26.486C70.8827 26.638 71.0327 26.828 71.1407 27.056C71.2527 27.28 71.3087 27.55 71.3087 27.866V30.908H72.1547V32H70.1567L70.0007 31.244C69.9327 31.372 69.8127 31.506 69.6407 31.646C69.4687 31.782 69.2467 31.898 68.9747 31.994C68.7067 32.086 68.3887 32.132 68.0207 32.132ZM68.4167 31.046C68.6767 31.046 68.9047 31.008 69.1007 30.932C69.2967 30.852 69.4587 30.756 69.5867 30.644C69.7147 30.532 69.8067 30.43 69.8627 30.338V29.726C69.8027 29.634 69.6987 29.546 69.5507 29.462C69.4027 29.374 69.2327 29.302 69.0407 29.246C68.8527 29.186 68.6587 29.156 68.4587 29.156C68.2387 29.156 68.0247 29.186 67.8167 29.246C67.6087 29.306 67.4387 29.404 67.3067 29.54C67.1747 29.676 67.1087 29.858 67.1087 30.086C67.1087 30.314 67.1627 30.498 67.2707 30.638C67.3827 30.778 67.5367 30.882 67.7327 30.95C67.9327 31.014 68.1607 31.046 68.4167 31.046ZM76.8214 32.132C76.5334 32.132 76.2434 32.094 75.9514 32.018C75.6634 31.942 75.3894 31.826 75.1294 31.67C74.8694 31.51 74.6374 31.306 74.4334 31.058C74.2334 30.81 74.0754 30.516 73.9594 30.176C73.8434 29.832 73.7854 29.436 73.7854 28.988C73.7854 28.536 73.8434 28.138 73.9594 27.794C74.0754 27.45 74.2334 27.156 74.4334 26.912C74.6374 26.664 74.8694 26.464 75.1294 26.312C75.3894 26.156 75.6634 26.042 75.9514 25.97C76.2434 25.894 76.5334 25.856 76.8214 25.856C77.1494 25.856 77.4514 25.896 77.7274 25.976C78.0074 26.052 78.2594 26.16 78.4834 26.3C78.7114 26.436 78.9054 26.598 79.0654 26.786C79.2254 26.97 79.3494 27.17 79.4374 27.386L78.1594 27.98C78.1154 27.824 78.0394 27.666 77.9314 27.506C77.8234 27.346 77.6814 27.212 77.5054 27.104C77.3294 26.996 77.1134 26.942 76.8574 26.942C76.6694 26.942 76.4834 26.98 76.2994 27.056C76.1154 27.132 75.9474 27.252 75.7954 27.416C75.6434 27.576 75.5214 27.786 75.4294 28.046C75.3374 28.306 75.2914 28.62 75.2914 28.988C75.2914 29.352 75.3374 29.664 75.4294 29.924C75.5214 30.18 75.6434 30.392 75.7954 30.56C75.9474 30.724 76.1154 30.846 76.2994 30.926C76.4834 31.006 76.6694 31.046 76.8574 31.046C77.1134 31.046 77.3294 30.996 77.5054 30.896C77.6854 30.792 77.8274 30.664 77.9314 30.512C78.0394 30.36 78.1134 30.21 78.1534 30.062L79.4314 30.662C79.3434 30.858 79.2194 31.046 79.0594 31.226C78.9034 31.402 78.7134 31.558 78.4894 31.694C78.2654 31.83 78.0134 31.936 77.7334 32.012C77.4574 32.092 77.1534 32.132 76.8214 32.132ZM81.8001 32V23H83.2641V28.304H84.0861V29.39H83.2641V32H81.8001ZM85.7901 32L82.9461 28.748L84.4641 28.616L87.5241 32H85.7901ZM84.4761 29L83.1021 28.688L85.7481 26H87.4761L84.4761 29ZM96.4268 30.224V24.098H97.8728V30.188C97.8728 30.428 97.9048 30.618 97.9688 30.758C98.0328 30.894 98.1208 30.992 98.2328 31.052C98.3448 31.108 98.4708 31.136 98.6108 31.136C98.7548 31.136 98.8868 31.108 99.0068 31.052C99.1308 30.996 99.2308 30.898 99.3068 30.758C99.3828 30.614 99.4208 30.41 99.4208 30.146H100.579C100.579 30.514 100.521 30.826 100.405 31.082C100.289 31.334 100.129 31.536 99.9248 31.688C99.7248 31.84 99.4968 31.95 99.2408 32.018C98.9848 32.086 98.7168 32.12 98.4368 32.12C98.1568 32.12 97.8948 32.086 97.6508 32.018C97.4068 31.954 97.1928 31.85 97.0088 31.706C96.8248 31.558 96.6808 31.364 96.5768 31.124C96.4768 30.88 96.4268 30.58 96.4268 30.224ZM95.0048 27.092V26H100.657V27.092H95.0048ZM105.754 32.132C105.482 32.132 105.204 32.096 104.92 32.024C104.636 31.956 104.36 31.846 104.092 31.694C103.828 31.542 103.592 31.344 103.384 31.1C103.176 30.852 103.01 30.554 102.886 30.206C102.762 29.858 102.7 29.452 102.7 28.988C102.7 28.528 102.762 28.124 102.886 27.776C103.01 27.428 103.176 27.132 103.384 26.888C103.592 26.644 103.828 26.446 104.092 26.294C104.36 26.142 104.636 26.032 104.92 25.964C105.204 25.892 105.482 25.856 105.754 25.856C106.026 25.856 106.304 25.892 106.588 25.964C106.872 26.032 107.146 26.142 107.41 26.294C107.674 26.446 107.91 26.644 108.118 26.888C108.33 27.132 108.496 27.428 108.616 27.776C108.74 28.124 108.802 28.528 108.802 28.988C108.802 29.452 108.74 29.858 108.616 30.206C108.496 30.554 108.33 30.852 108.118 31.1C107.91 31.344 107.674 31.542 107.41 31.694C107.146 31.846 106.872 31.956 106.588 32.024C106.304 32.096 106.026 32.132 105.754 32.132ZM105.754 31.046C105.938 31.046 106.122 31.01 106.306 30.938C106.494 30.862 106.664 30.746 106.816 30.59C106.972 30.43 107.096 30.218 107.188 29.954C107.28 29.69 107.326 29.368 107.326 28.988C107.326 28.612 107.28 28.294 107.188 28.034C107.096 27.77 106.972 27.558 106.816 27.398C106.664 27.238 106.494 27.122 106.306 27.05C106.122 26.978 105.938 26.942 105.754 26.942C105.57 26.942 105.384 26.978 105.196 27.05C105.012 27.122 104.842 27.238 104.686 27.398C104.534 27.558 104.41 27.77 104.314 28.034C104.222 28.294 104.176 28.612 104.176 28.988C104.176 29.368 104.222 29.69 104.314 29.954C104.41 30.218 104.534 30.43 104.686 30.59C104.842 30.746 105.012 30.862 105.196 30.938C105.384 31.01 105.57 31.046 105.754 31.046ZM116.835 32V23H118.299V30.686L118.119 32H116.835ZM120.057 32.132C119.681 32.132 119.347 32.05 119.055 31.886C118.763 31.722 118.517 31.512 118.317 31.256C118.117 31 117.965 30.728 117.861 30.44C117.761 30.148 117.711 29.874 117.711 29.618L118.269 29.432C118.285 29.628 118.329 29.82 118.401 30.008C118.473 30.196 118.569 30.364 118.689 30.512C118.813 30.656 118.957 30.772 119.121 30.86C119.285 30.944 119.465 30.986 119.661 30.986C119.941 30.986 120.195 30.912 120.423 30.764C120.655 30.616 120.839 30.394 120.975 30.098C121.111 29.802 121.179 29.432 121.179 28.988C121.179 28.544 121.113 28.176 120.981 27.884C120.853 27.592 120.677 27.374 120.453 27.23C120.229 27.086 119.979 27.014 119.703 27.014C119.503 27.014 119.321 27.054 119.157 27.134C118.997 27.214 118.855 27.322 118.731 27.458C118.607 27.59 118.503 27.742 118.419 27.914C118.339 28.082 118.281 28.252 118.245 28.424L117.729 28.238C117.729 27.986 117.781 27.724 117.885 27.452C117.993 27.176 118.149 26.918 118.353 26.678C118.557 26.438 118.807 26.244 119.103 26.096C119.399 25.944 119.737 25.868 120.117 25.868C120.549 25.868 120.957 25.978 121.341 26.198C121.725 26.418 122.035 26.758 122.271 27.218C122.511 27.678 122.631 28.268 122.631 28.988C122.631 29.528 122.559 29.996 122.415 30.392C122.271 30.788 122.075 31.114 121.827 31.37C121.583 31.626 121.307 31.818 120.999 31.946C120.695 32.07 120.381 32.132 120.057 32.132ZM126.566 32.138C126.254 32.138 125.97 32.09 125.714 31.994C125.462 31.894 125.244 31.742 125.06 31.538C124.88 31.334 124.74 31.072 124.64 30.752C124.544 30.428 124.496 30.042 124.496 29.594V26H125.948V29.366C125.948 29.754 125.986 30.068 126.062 30.308C126.142 30.544 126.264 30.716 126.428 30.824C126.596 30.932 126.808 30.986 127.064 30.986C127.248 30.986 127.42 30.95 127.58 30.878C127.744 30.806 127.89 30.708 128.018 30.584C128.146 30.456 128.248 30.31 128.324 30.146C128.4 29.982 128.446 29.808 128.462 29.624L128.816 29.768C128.816 30.056 128.768 30.34 128.672 30.62C128.58 30.9 128.438 31.156 128.246 31.388C128.058 31.616 127.824 31.798 127.544 31.934C127.264 32.07 126.938 32.138 126.566 32.138ZM128.726 32L128.432 30.65V26H129.884V31.226L129.632 30.908H130.58V32H128.726ZM135.132 32.132C134.684 32.132 134.278 32.088 133.914 32C133.554 31.908 133.24 31.782 132.972 31.622C132.708 31.462 132.5 31.274 132.348 31.058L133.488 30.302C133.556 30.41 133.644 30.51 133.752 30.602C133.86 30.694 133.986 30.774 134.13 30.842C134.274 30.906 134.434 30.954 134.61 30.986C134.79 31.018 134.98 31.034 135.18 31.034C135.368 31.034 135.546 31.02 135.714 30.992C135.882 30.96 136.03 30.914 136.158 30.854C136.29 30.79 136.392 30.708 136.464 30.608C136.54 30.508 136.578 30.386 136.578 30.242C136.578 30.074 136.5 29.938 136.344 29.834C136.188 29.726 135.972 29.638 135.696 29.57C135.424 29.502 135.108 29.442 134.748 29.39C134.476 29.35 134.206 29.29 133.938 29.21C133.674 29.13 133.434 29.022 133.218 28.886C133.006 28.746 132.836 28.57 132.708 28.358C132.58 28.142 132.516 27.886 132.516 27.59C132.516 27.342 132.566 27.124 132.666 26.936C132.77 26.748 132.91 26.586 133.086 26.45C133.266 26.314 133.472 26.202 133.704 26.114C133.936 26.026 134.18 25.962 134.436 25.922C134.696 25.878 134.954 25.856 135.21 25.856C135.646 25.856 136.034 25.91 136.374 26.018C136.714 26.122 137 26.256 137.232 26.42C137.464 26.58 137.634 26.742 137.742 26.906L136.632 27.626C136.58 27.526 136.504 27.434 136.404 27.35C136.308 27.266 136.192 27.194 136.056 27.134C135.924 27.07 135.78 27.022 135.624 26.99C135.468 26.954 135.304 26.936 135.132 26.936C134.992 26.936 134.846 26.948 134.694 26.972C134.546 26.992 134.406 27.028 134.274 27.08C134.146 27.128 134.04 27.194 133.956 27.278C133.876 27.362 133.836 27.468 133.836 27.596C133.836 27.752 133.902 27.88 134.034 27.98C134.17 28.076 134.354 28.154 134.586 28.214C134.818 28.274 135.082 28.328 135.378 28.376C135.586 28.408 135.806 28.448 136.038 28.496C136.274 28.544 136.504 28.608 136.728 28.688C136.956 28.768 137.16 28.872 137.34 29C137.524 29.128 137.67 29.288 137.778 29.48C137.89 29.668 137.946 29.894 137.946 30.158C137.946 30.434 137.894 30.68 137.79 30.896C137.686 31.108 137.542 31.292 137.358 31.448C137.178 31.604 136.968 31.732 136.728 31.832C136.488 31.932 136.232 32.006 135.96 32.054C135.688 32.106 135.412 32.132 135.132 32.132ZM139.517 32V30.908H141.401V27.092H139.781V26H142.853V30.908H144.623V32H139.517ZM141.371 23.462H142.865V24.968H141.371V23.462ZM146.273 32V26H147.563L147.731 27.242V32H146.273ZM150.203 32V28.634C150.203 28.246 150.163 27.934 150.083 27.698C150.007 27.458 149.885 27.284 149.717 27.176C149.553 27.068 149.343 27.014 149.087 27.014C148.903 27.014 148.729 27.05 148.565 27.122C148.405 27.194 148.261 27.294 148.133 27.422C148.005 27.546 147.903 27.69 147.827 27.854C147.751 28.018 147.705 28.192 147.689 28.376L147.335 28.232C147.335 27.944 147.381 27.66 147.473 27.38C147.569 27.1 147.711 26.846 147.899 26.618C148.091 26.386 148.327 26.202 148.607 26.066C148.887 25.93 149.213 25.862 149.585 25.862C149.901 25.862 150.185 25.912 150.437 26.012C150.689 26.108 150.907 26.258 151.091 26.462C151.275 26.666 151.415 26.928 151.511 27.248C151.611 27.568 151.661 27.954 151.661 28.406V32H150.203ZM156.766 32.132C156.382 32.132 156.008 32.068 155.644 31.94C155.28 31.812 154.952 31.618 154.66 31.358C154.372 31.098 154.142 30.772 153.97 30.38C153.798 29.984 153.712 29.52 153.712 28.988C153.712 28.456 153.798 27.994 153.97 27.602C154.142 27.21 154.374 26.884 154.666 26.624C154.958 26.364 155.286 26.172 155.65 26.048C156.018 25.92 156.396 25.856 156.784 25.856C157.184 25.856 157.566 25.916 157.93 26.036C158.294 26.156 158.618 26.336 158.902 26.576C159.186 26.816 159.408 27.118 159.568 27.482C159.732 27.846 159.814 28.27 159.814 28.754C159.814 28.834 159.81 28.924 159.802 29.024C159.794 29.124 159.784 29.21 159.772 29.282H154.87V28.388H158.302C158.302 28.372 158.302 28.36 158.302 28.352C158.302 28.344 158.302 28.33 158.302 28.31C158.302 28.038 158.234 27.8 158.098 27.596C157.966 27.388 157.788 27.226 157.564 27.11C157.34 26.994 157.088 26.936 156.808 26.936C156.612 26.936 156.416 26.976 156.22 27.056C156.028 27.132 155.854 27.252 155.698 27.416C155.546 27.576 155.424 27.786 155.332 28.046C155.24 28.302 155.194 28.612 155.194 28.976C155.194 29.424 155.268 29.802 155.416 30.11C155.568 30.418 155.768 30.652 156.016 30.812C156.268 30.968 156.544 31.046 156.844 31.046C157.12 31.046 157.354 31 157.546 30.908C157.742 30.816 157.898 30.706 158.014 30.578C158.134 30.45 158.218 30.326 158.266 30.206L159.58 30.848C159.48 31.028 159.344 31.196 159.172 31.352C159.004 31.504 158.802 31.64 158.566 31.76C158.33 31.876 158.062 31.966 157.762 32.03C157.462 32.098 157.13 32.132 156.766 32.132ZM164.546 32.132C164.098 32.132 163.692 32.088 163.328 32C162.968 31.908 162.654 31.782 162.386 31.622C162.122 31.462 161.914 31.274 161.762 31.058L162.902 30.302C162.97 30.41 163.058 30.51 163.166 30.602C163.274 30.694 163.4 30.774 163.544 30.842C163.688 30.906 163.848 30.954 164.024 30.986C164.204 31.018 164.394 31.034 164.594 31.034C164.782 31.034 164.96 31.02 165.128 30.992C165.296 30.96 165.444 30.914 165.572 30.854C165.704 30.79 165.806 30.708 165.878 30.608C165.954 30.508 165.992 30.386 165.992 30.242C165.992 30.074 165.914 29.938 165.758 29.834C165.602 29.726 165.386 29.638 165.11 29.57C164.838 29.502 164.522 29.442 164.162 29.39C163.89 29.35 163.62 29.29 163.352 29.21C163.088 29.13 162.848 29.022 162.632 28.886C162.42 28.746 162.25 28.57 162.122 28.358C161.994 28.142 161.93 27.886 161.93 27.59C161.93 27.342 161.98 27.124 162.08 26.936C162.184 26.748 162.324 26.586 162.5 26.45C162.68 26.314 162.886 26.202 163.118 26.114C163.35 26.026 163.594 25.962 163.85 25.922C164.11 25.878 164.368 25.856 164.624 25.856C165.06 25.856 165.448 25.91 165.788 26.018C166.128 26.122 166.414 26.256 166.646 26.42C166.878 26.58 167.048 26.742 167.156 26.906L166.046 27.626C165.994 27.526 165.918 27.434 165.818 27.35C165.722 27.266 165.606 27.194 165.47 27.134C165.338 27.07 165.194 27.022 165.038 26.99C164.882 26.954 164.718 26.936 164.546 26.936C164.406 26.936 164.26 26.948 164.108 26.972C163.96 26.992 163.82 27.028 163.688 27.08C163.56 27.128 163.454 27.194 163.37 27.278C163.29 27.362 163.25 27.468 163.25 27.596C163.25 27.752 163.316 27.88 163.448 27.98C163.584 28.076 163.768 28.154 164 28.214C164.232 28.274 164.496 28.328 164.792 28.376C165 28.408 165.22 28.448 165.452 28.496C165.688 28.544 165.918 28.608 166.142 28.688C166.37 28.768 166.574 28.872 166.754 29C166.938 29.128 167.084 29.288 167.192 29.48C167.304 29.668 167.36 29.894 167.36 30.158C167.36 30.434 167.308 30.68 167.204 30.896C167.1 31.108 166.956 31.292 166.772 31.448C166.592 31.604 166.382 31.732 166.142 31.832C165.902 31.932 165.646 32.006 165.374 32.054C165.102 32.106 164.826 32.132 164.546 32.132ZM172.351 32.132C171.903 32.132 171.497 32.088 171.133 32C170.773 31.908 170.459 31.782 170.191 31.622C169.927 31.462 169.719 31.274 169.567 31.058L170.707 30.302C170.775 30.41 170.863 30.51 170.971 30.602C171.079 30.694 171.205 30.774 171.349 30.842C171.493 30.906 171.653 30.954 171.829 30.986C172.009 31.018 172.199 31.034 172.399 31.034C172.587 31.034 172.765 31.02 172.933 30.992C173.101 30.96 173.249 30.914 173.377 30.854C173.509 30.79 173.611 30.708 173.683 30.608C173.759 30.508 173.797 30.386 173.797 30.242C173.797 30.074 173.719 29.938 173.563 29.834C173.407 29.726 173.191 29.638 172.915 29.57C172.643 29.502 172.327 29.442 171.967 29.39C171.695 29.35 171.425 29.29 171.157 29.21C170.893 29.13 170.653 29.022 170.437 28.886C170.225 28.746 170.055 28.57 169.927 28.358C169.799 28.142 169.735 27.886 169.735 27.59C169.735 27.342 169.785 27.124 169.885 26.936C169.989 26.748 170.129 26.586 170.305 26.45C170.485 26.314 170.691 26.202 170.923 26.114C171.155 26.026 171.399 25.962 171.655 25.922C171.915 25.878 172.173 25.856 172.429 25.856C172.865 25.856 173.253 25.91 173.593 26.018C173.933 26.122 174.219 26.256 174.451 26.42C174.683 26.58 174.853 26.742 174.961 26.906L173.851 27.626C173.799 27.526 173.723 27.434 173.623 27.35C173.527 27.266 173.411 27.194 173.275 27.134C173.143 27.07 172.999 27.022 172.843 26.99C172.687 26.954 172.523 26.936 172.351 26.936C172.211 26.936 172.065 26.948 171.913 26.972C171.765 26.992 171.625 27.028 171.493 27.08C171.365 27.128 171.259 27.194 171.175 27.278C171.095 27.362 171.055 27.468 171.055 27.596C171.055 27.752 171.121 27.88 171.253 27.98C171.389 28.076 171.573 28.154 171.805 28.214C172.037 28.274 172.301 28.328 172.597 28.376C172.805 28.408 173.025 28.448 173.257 28.496C173.493 28.544 173.723 28.608 173.947 28.688C174.175 28.768 174.379 28.872 174.559 29C174.743 29.128 174.889 29.288 174.997 29.48C175.109 29.668 175.165 29.894 175.165 30.158C175.165 30.434 175.113 30.68 175.009 30.896C174.905 31.108 174.761 31.292 174.577 31.448C174.397 31.604 174.187 31.732 173.947 31.832C173.707 31.932 173.451 32.006 173.179 32.054C172.907 32.106 172.631 32.132 172.351 32.132ZM178.452 30.494H180V32H178.452V30.494Z" fill="#F9F9F9"/>
<g clip-path="url(#clip0_388_551)">
<path d="M22.1329 61.5348C24.7482 59.3448 27.1713 57.2926 29.6286 55.2722C29.8208 55.1345 30.1528 55.1902 30.8088 55.104C29.9345 56.3175 29.3157 57.3254 28.5599 58.2056C26.5426 60.5091 24.4885 62.7148 22.4027 64.9544C22.1499 65.2258 21.9313 65.5292 21.61 65.7369C20.617 66.4596 19.7502 66.2226 19.4047 65.0138C19.2491 64.4253 19.1593 63.8347 19.1354 63.2422C19.0451 61.0037 19.0207 58.7631 18.9963 56.5226C18.9803 56.1276 19.162 55.7264 19.3014 55.0959C21.1118 56.6552 19.9797 58.8325 21.0024 60.482C21.2183 60.1127 21.4368 59.8094 21.5895 59.508C27.5872 47.985 36.3624 39.1121 47.2986 32.315C48.4232 31.5882 49.6534 31.0229 50.8492 30.4258C51.4629 30.1102 52.219 30.054 52.5486 30.8678C52.9098 31.6478 52.4673 32.1228 51.7219 32.4424C43.3243 35.9642 37.0114 42.1244 31.0465 48.7354C27.9205 52.1607 25.2002 55.8371 22.9227 59.8625C22.6462 60.3654 22.404 60.9002 22.1329 61.5348Z" fill="#F9F9F9"/>
</g>
<path d="M26.5651 82.4401C26.7049 82.5795 26.8159 82.745 26.8916 82.9274C26.9673 83.1097 27.0063 83.3052 27.0063 83.5026C27.0063 83.7 26.9673 83.8955 26.8916 84.0778C26.8159 84.2602 26.7049 84.4257 26.5651 84.5651L16.5651 94.5651C16.4257 94.7049 16.2602 94.8159 16.0778 94.8916C15.8955 94.9673 15.7 95.0063 15.5026 95.0063C15.3052 95.0063 15.1097 94.9673 14.9274 94.8916C14.745 94.8159 14.5795 94.7049 14.4401 94.5651L4.4401 84.5651C4.30057 84.4256 4.18989 84.2599 4.11438 84.0776C4.03887 83.8953 4 83.6999 4 83.5026C4 83.3053 4.03887 83.1099 4.11438 82.9276C4.18989 82.7453 4.30057 82.5796 4.4401 82.4401C4.57963 82.3006 4.74528 82.1899 4.92758 82.1144C5.10988 82.0389 5.30528 82 5.5026 82C5.69993 82 5.89532 82.0389 6.07762 82.1144C6.25993 82.1899 6.42557 82.3006 6.5651 82.4401L15.5039 91.3764L24.4426 82.4364C24.5822 82.2971 24.7478 82.1868 24.93 82.1116C25.1122 82.0365 25.3075 81.9979 25.5046 81.9983C25.7018 81.9986 25.8969 82.0378 26.0788 82.1137C26.2608 82.1895 26.426 82.3004 26.5651 82.4401ZM14.4401 84.5651C14.5795 84.7049 14.745 84.8159 14.9274 84.8916C15.1097 84.9673 15.3052 85.0063 15.5026 85.0063C15.7 85.0063 15.8955 84.9673 16.0778 84.8916C16.2602 84.8159 16.4257 84.7049 16.5651 84.5651L26.5651 74.5651C26.7046 74.4256 26.8153 74.2599 26.8908 74.0776C26.9663 73.8953 27.0052 73.6999 27.0052 73.5026C27.0052 73.3053 26.9663 73.1099 26.8908 72.9276C26.8153 72.7453 26.7046 72.5796 26.5651 72.4401C26.4256 72.3006 26.2599 72.1899 26.0776 72.1144C25.8953 72.0389 25.6999 72 25.5026 72C25.3053 72 25.1099 72.0389 24.9276 72.1144C24.7453 72.1899 24.5796 72.3006 24.4401 72.4401L15.5039 81.3764L6.5651 72.4401C6.28331 72.1583 5.90112 72 5.5026 72C5.10409 72 4.72189 72.1583 4.4401 72.4401C4.15831 72.7219 4 73.1041 4 73.5026C4 73.9011 4.15831 74.2833 4.4401 74.5651L14.4401 84.5651Z" fill="#F9F9F9"/>
<defs>
<clipPath id="clip0_388_551">
<rect width="48" height="9" fill="white" transform="translate(14.1953 60.5786) rotate(-47.0369)"/>
</clipPath>
</defs>
</svg>
