<svg width="141" height="87" viewBox="0 0 141 87" fill="none" xmlns="http://www.w3.org/2000/svg">
<path d="M18 57H14C11.879 57.0023 9.84549 57.8459 8.3457 59.3457C6.84591 60.8455 6.00232 62.879 6 65V77C6.00232 79.121 6.84591 81.1545 8.3457 82.6543C9.84549 84.1541 11.879 84.9977 14 85H18C20.121 84.9977 22.1545 84.1541 23.6543 82.6543C25.1541 81.1545 25.9977 79.121 26 77V65C25.9977 62.879 25.1541 60.8455 23.6543 59.3457C22.1545 57.8459 20.121 57.0023 18 57ZM18.2925 75.2925C18.4801 75.1049 18.7346 74.9994 19 74.9994C19.2654 74.9994 19.5199 75.1049 19.7075 75.2925C19.8951 75.4801 20.0006 75.7346 20.0006 76C20.0006 76.2654 19.8951 76.5199 19.7075 76.7075L16.7075 79.7075C16.6146 79.8005 16.5043 79.8742 16.3829 79.9246C16.2615 79.9749 16.1314 80.0008 16 80.0008C15.8686 80.0008 15.7385 79.9749 15.6171 79.9246C15.4957 79.8742 15.3854 79.8005 15.2925 79.7075L12.2925 76.7075C12.1049 76.5199 11.9994 76.2654 11.9994 76C11.9994 75.7346 12.1049 75.4801 12.2925 75.2925C12.4801 75.1049 12.7346 74.9994 13 74.9994C13.2654 74.9994 13.5199 75.1049 13.7075 75.2925L15 76.5863V65.4137L13.7075 66.7075C13.5199 66.8951 13.2654 67.0006 13 67.0006C12.7346 67.0006 12.4801 66.8951 12.2925 66.7075C12.1049 66.5199 11.9994 66.2654 11.9994 66C11.9994 65.7346 12.1049 65.4801 12.2925 65.2925L15.2925 62.2925C15.3854 62.1995 15.4957 62.1258 15.6171 62.0754C15.7385 62.0251 15.8686 61.9992 16 61.9992C16.1314 61.9992 16.2615 62.0251 16.3829 62.0754C16.5043 62.1258 16.6146 62.1995 16.7075 62.2925L19.7075 65.2925C19.8004 65.3854 19.8741 65.4957 19.9244 65.6171C19.9747 65.7385 20.0006 65.8686 20.0006 66C20.0006 66.1314 19.9747 66.2615 19.9244 66.3829C19.8741 66.5043 19.8004 66.6146 19.7075 66.7075C19.6146 66.8004 19.5043 66.8741 19.3829 66.9244C19.2615 66.9747 19.1314 67.0006 19 67.0006C18.8686 67.0006 18.7385 66.9747 18.6171 66.9244C18.4957 66.8741 18.3854 66.8004 18.2925 66.7075L17 65.4137V76.5863L18.2925 75.2925Z" fill="#F9F9F9"/>
<path d="M44.168 32V24.692H41.798V23.6H48.002V24.692H45.62V32H44.168ZM49.4301 32V30.908H50.6481V27.092H49.4301V26H51.7941L52.1001 27.458V30.908H53.4981V32H49.4301ZM52.0701 28.52L51.5481 28.28C51.5521 28.016 51.6021 27.764 51.6981 27.524C51.7941 27.28 51.9241 27.058 52.0881 26.858C52.2521 26.654 52.4421 26.478 52.6581 26.33C52.8741 26.178 53.1041 26.062 53.3481 25.982C53.5921 25.898 53.8381 25.856 54.0861 25.856C54.3661 25.856 54.5741 25.88 54.7101 25.928C54.8501 25.972 54.9401 26.01 54.9801 26.042L54.6681 27.26C54.6361 27.232 54.5561 27.198 54.4281 27.158C54.3001 27.118 54.1281 27.098 53.9121 27.098C53.7001 27.098 53.4941 27.138 53.2941 27.218C53.0941 27.298 52.9081 27.406 52.7361 27.542C52.5681 27.678 52.4241 27.83 52.3041 27.998C52.1881 28.166 52.1101 28.34 52.0701 28.52ZM58.3508 34.4L59.4188 31.688L59.8748 32.03H58.8188L56.6528 26H58.1528L59.8688 31.208H59.6168L61.3388 26H62.8088L59.7968 34.4H58.3508ZM73.4995 32.132C73.0515 32.132 72.6455 32.088 72.2815 32C71.9215 31.908 71.6075 31.782 71.3395 31.622C71.0755 31.462 70.8675 31.274 70.7155 31.058L71.8555 30.302C71.9235 30.41 72.0115 30.51 72.1195 30.602C72.2275 30.694 72.3535 30.774 72.4975 30.842C72.6415 30.906 72.8015 30.954 72.9775 30.986C73.1575 31.018 73.3475 31.034 73.5475 31.034C73.7355 31.034 73.9135 31.02 74.0815 30.992C74.2495 30.96 74.3975 30.914 74.5255 30.854C74.6575 30.79 74.7595 30.708 74.8315 30.608C74.9075 30.508 74.9455 30.386 74.9455 30.242C74.9455 30.074 74.8675 29.938 74.7115 29.834C74.5555 29.726 74.3395 29.638 74.0635 29.57C73.7915 29.502 73.4755 29.442 73.1155 29.39C72.8435 29.35 72.5735 29.29 72.3055 29.21C72.0415 29.13 71.8015 29.022 71.5855 28.886C71.3735 28.746 71.2035 28.57 71.0755 28.358C70.9475 28.142 70.8835 27.886 70.8835 27.59C70.8835 27.342 70.9335 27.124 71.0335 26.936C71.1375 26.748 71.2775 26.586 71.4535 26.45C71.6335 26.314 71.8395 26.202 72.0715 26.114C72.3035 26.026 72.5475 25.962 72.8035 25.922C73.0635 25.878 73.3215 25.856 73.5775 25.856C74.0135 25.856 74.4015 25.91 74.7415 26.018C75.0815 26.122 75.3675 26.256 75.5995 26.42C75.8315 26.58 76.0015 26.742 76.1095 26.906L74.9995 27.626C74.9475 27.526 74.8715 27.434 74.7715 27.35C74.6755 27.266 74.5595 27.194 74.4235 27.134C74.2915 27.07 74.1475 27.022 73.9915 26.99C73.8355 26.954 73.6715 26.936 73.4995 26.936C73.3595 26.936 73.2135 26.948 73.0615 26.972C72.9135 26.992 72.7735 27.028 72.6415 27.08C72.5135 27.128 72.4075 27.194 72.3235 27.278C72.2435 27.362 72.2035 27.468 72.2035 27.596C72.2035 27.752 72.2695 27.88 72.4015 27.98C72.5375 28.076 72.7215 28.154 72.9535 28.214C73.1855 28.274 73.4495 28.328 73.7455 28.376C73.9535 28.408 74.1735 28.448 74.4055 28.496C74.6415 28.544 74.8715 28.608 75.0955 28.688C75.3235 28.768 75.5275 28.872 75.7075 29C75.8915 29.128 76.0375 29.288 76.1455 29.48C76.2575 29.668 76.3135 29.894 76.3135 30.158C76.3135 30.434 76.2615 30.68 76.1575 30.896C76.0535 31.108 75.9095 31.292 75.7255 31.448C75.5455 31.604 75.3355 31.732 75.0955 31.832C74.8555 31.932 74.5995 32.006 74.3275 32.054C74.0555 32.106 73.7795 32.132 73.4995 32.132ZM81.6222 32.132C81.3342 32.132 81.0442 32.094 80.7522 32.018C80.4642 31.942 80.1902 31.826 79.9302 31.67C79.6702 31.51 79.4382 31.306 79.2342 31.058C79.0342 30.81 78.8762 30.516 78.7602 30.176C78.6442 29.832 78.5862 29.436 78.5862 28.988C78.5862 28.536 78.6442 28.138 78.7602 27.794C78.8762 27.45 79.0342 27.156 79.2342 26.912C79.4382 26.664 79.6702 26.464 79.9302 26.312C80.1902 26.156 80.4642 26.042 80.7522 25.97C81.0442 25.894 81.3342 25.856 81.6222 25.856C81.9502 25.856 82.2522 25.896 82.5282 25.976C82.8082 26.052 83.0602 26.16 83.2842 26.3C83.5122 26.436 83.7062 26.598 83.8662 26.786C84.0262 26.97 84.1502 27.17 84.2382 27.386L82.9602 27.98C82.9162 27.824 82.8402 27.666 82.7322 27.506C82.6242 27.346 82.4822 27.212 82.3062 27.104C82.1302 26.996 81.9142 26.942 81.6582 26.942C81.4702 26.942 81.2842 26.98 81.1002 27.056C80.9162 27.132 80.7482 27.252 80.5962 27.416C80.4442 27.576 80.3222 27.786 80.2302 28.046C80.1382 28.306 80.0922 28.62 80.0922 28.988C80.0922 29.352 80.1382 29.664 80.2302 29.924C80.3222 30.18 80.4442 30.392 80.5962 30.56C80.7482 30.724 80.9162 30.846 81.1002 30.926C81.2842 31.006 81.4702 31.046 81.6582 31.046C81.9142 31.046 82.1302 30.996 82.3062 30.896C82.4862 30.792 82.6282 30.664 82.7322 30.512C82.8402 30.36 82.9142 30.21 82.9542 30.062L84.2322 30.662C84.1442 30.858 84.0202 31.046 83.8602 31.226C83.7042 31.402 83.5142 31.558 83.2902 31.694C83.0662 31.83 82.8142 31.936 82.5342 32.012C82.2582 32.092 81.9542 32.132 81.6222 32.132ZM86.6488 32V30.908H87.8668V27.092H86.6488V26H89.0128L89.3188 27.458V30.908H90.7168V32H86.6488ZM89.2888 28.52L88.7668 28.28C88.7708 28.016 88.8208 27.764 88.9168 27.524C89.0128 27.28 89.1428 27.058 89.3068 26.858C89.4708 26.654 89.6608 26.478 89.8768 26.33C90.0928 26.178 90.3228 26.062 90.5668 25.982C90.8108 25.898 91.0568 25.856 91.3048 25.856C91.5848 25.856 91.7928 25.88 91.9288 25.928C92.0688 25.972 92.1588 26.01 92.1988 26.042L91.8868 27.26C91.8548 27.232 91.7748 27.198 91.6468 27.158C91.5188 27.118 91.3468 27.098 91.1308 27.098C90.9188 27.098 90.7128 27.138 90.5128 27.218C90.3128 27.298 90.1268 27.406 89.9548 27.542C89.7868 27.678 89.6428 27.83 89.5228 27.998C89.4068 28.166 89.3288 28.34 89.2888 28.52ZM96.9495 32.132C96.6775 32.132 96.3995 32.096 96.1155 32.024C95.8315 31.956 95.5555 31.846 95.2875 31.694C95.0235 31.542 94.7875 31.344 94.5795 31.1C94.3715 30.852 94.2055 30.554 94.0815 30.206C93.9575 29.858 93.8955 29.452 93.8955 28.988C93.8955 28.528 93.9575 28.124 94.0815 27.776C94.2055 27.428 94.3715 27.132 94.5795 26.888C94.7875 26.644 95.0235 26.446 95.2875 26.294C95.5555 26.142 95.8315 26.032 96.1155 25.964C96.3995 25.892 96.6775 25.856 96.9495 25.856C97.2215 25.856 97.4995 25.892 97.7835 25.964C98.0675 26.032 98.3415 26.142 98.6055 26.294C98.8695 26.446 99.1055 26.644 99.3135 26.888C99.5255 27.132 99.6915 27.428 99.8115 27.776C99.9355 28.124 99.9975 28.528 99.9975 28.988C99.9975 29.452 99.9355 29.858 99.8115 30.206C99.6915 30.554 99.5255 30.852 99.3135 31.1C99.1055 31.344 98.8695 31.542 98.6055 31.694C98.3415 31.846 98.0675 31.956 97.7835 32.024C97.4995 32.096 97.2215 32.132 96.9495 32.132ZM96.9495 31.046C97.1335 31.046 97.3175 31.01 97.5015 30.938C97.6895 30.862 97.8595 30.746 98.0115 30.59C98.1675 30.43 98.2915 30.218 98.3835 29.954C98.4755 29.69 98.5215 29.368 98.5215 28.988C98.5215 28.612 98.4755 28.294 98.3835 28.034C98.2915 27.77 98.1675 27.558 98.0115 27.398C97.8595 27.238 97.6895 27.122 97.5015 27.05C97.3175 26.978 97.1335 26.942 96.9495 26.942C96.7655 26.942 96.5795 26.978 96.3915 27.05C96.2075 27.122 96.0375 27.238 95.8815 27.398C95.7295 27.558 95.6055 27.77 95.5095 28.034C95.4175 28.294 95.3715 28.612 95.3715 28.988C95.3715 29.368 95.4175 29.69 95.5095 29.954C95.6055 30.218 95.7295 30.43 95.8815 30.59C96.0375 30.746 96.2075 30.862 96.3915 30.938C96.5795 31.01 96.7655 31.046 96.9495 31.046ZM101.268 32V30.908H103.044V24.092H101.58V23H104.502V30.908H106.314V32H101.268ZM107.268 32V30.908H109.044V24.092H107.58V23H110.502V30.908H112.314V32H107.268ZM113.298 32V30.908H115.182V27.092H113.562V26H116.634V30.908H118.404V32H113.298ZM115.152 23.462H116.646V24.968H115.152V23.462ZM120.054 32V26H121.344L121.512 27.242V32H120.054ZM123.984 32V28.634C123.984 28.246 123.944 27.934 123.864 27.698C123.788 27.458 123.666 27.284 123.498 27.176C123.334 27.068 123.124 27.014 122.868 27.014C122.684 27.014 122.51 27.05 122.346 27.122C122.186 27.194 122.042 27.294 121.914 27.422C121.786 27.546 121.684 27.69 121.608 27.854C121.532 28.018 121.486 28.192 121.47 28.376L121.116 28.232C121.116 27.944 121.162 27.66 121.254 27.38C121.35 27.1 121.492 26.846 121.68 26.618C121.872 26.386 122.108 26.202 122.388 26.066C122.668 25.93 122.994 25.862 123.366 25.862C123.682 25.862 123.966 25.912 124.218 26.012C124.47 26.108 124.688 26.258 124.872 26.462C125.056 26.666 125.196 26.928 125.292 27.248C125.392 27.568 125.442 27.954 125.442 28.406V32H123.984ZM130.487 34.556C130.095 34.556 129.733 34.504 129.401 34.4C129.073 34.296 128.789 34.152 128.549 33.968C128.313 33.784 128.129 33.566 127.997 33.314C127.865 33.066 127.799 32.794 127.799 32.498H129.251C129.251 32.59 129.275 32.69 129.323 32.798C129.375 32.906 129.451 33.008 129.551 33.104C129.655 33.204 129.787 33.286 129.947 33.35C130.107 33.414 130.299 33.446 130.523 33.446C130.823 33.446 131.077 33.374 131.285 33.23C131.497 33.086 131.657 32.882 131.765 32.618C131.877 32.354 131.933 32.04 131.933 31.676V27.236L131.999 26H133.385V31.61C133.385 31.994 133.337 32.342 133.241 32.654C133.149 32.966 133.017 33.24 132.845 33.476C132.673 33.712 132.467 33.91 132.227 34.07C131.991 34.23 131.725 34.35 131.429 34.43C131.137 34.514 130.823 34.556 130.487 34.556ZM130.181 32.132C129.857 32.132 129.541 32.07 129.233 31.946C128.929 31.818 128.653 31.626 128.405 31.37C128.161 31.114 127.967 30.788 127.823 30.392C127.679 29.996 127.607 29.528 127.607 28.988C127.607 28.268 127.727 27.678 127.967 27.218C128.207 26.758 128.517 26.418 128.897 26.198C129.281 25.978 129.689 25.868 130.121 25.868C130.501 25.868 130.839 25.944 131.135 26.096C131.435 26.244 131.685 26.438 131.885 26.678C132.089 26.918 132.245 27.176 132.353 27.452C132.461 27.724 132.515 27.986 132.515 28.238L131.993 28.424C131.957 28.252 131.897 28.082 131.813 27.914C131.733 27.742 131.631 27.59 131.507 27.458C131.383 27.322 131.239 27.214 131.075 27.134C130.915 27.054 130.735 27.014 130.535 27.014C130.259 27.014 130.009 27.086 129.785 27.23C129.565 27.374 129.389 27.592 129.257 27.884C129.125 28.176 129.059 28.544 129.059 28.988C129.059 29.432 129.127 29.802 129.263 30.098C129.399 30.394 129.581 30.616 129.809 30.764C130.041 30.912 130.297 30.986 130.577 30.986C130.777 30.986 130.957 30.944 131.117 30.86C131.281 30.772 131.423 30.656 131.543 30.512C131.667 30.364 131.765 30.196 131.837 30.008C131.909 29.82 131.953 29.628 131.969 29.432L132.527 29.618C132.527 29.874 132.477 30.148 132.377 30.44C132.277 30.728 132.127 31 131.927 31.256C131.727 31.512 131.481 31.722 131.189 31.886C130.897 32.05 130.561 32.132 130.181 32.132ZM136.948 29.432L136.708 23.6H138.37L138.136 29.432H136.948ZM136.75 30.494H138.304V32H136.75V30.494Z" fill="#F9F9F9"/>
<g clip-path="url(#clip0_388_136)">
<path d="M19.1695 48.6093C20.8518 47.1695 22.4103 45.8204 23.9914 44.4918C24.1153 44.4011 24.3316 44.4353 24.7574 44.3752C24.199 45.1695 23.8051 45.8285 23.3209 46.4054C22.0284 47.9152 20.711 49.3618 19.3734 50.8306C19.2113 51.0086 19.0717 51.2072 18.8645 51.3442C18.2248 51.8201 17.6592 51.6714 17.4244 50.8877C17.3183 50.5061 17.255 50.1228 17.2346 49.7377C17.1572 48.283 17.1226 46.8267 17.0881 45.3703C17.0744 45.1136 17.1892 44.8517 17.2746 44.4409C18.4648 45.4434 17.7468 46.8658 18.4255 47.9318C18.5629 47.6904 18.7025 47.4919 18.7992 47.295C22.6032 39.7671 28.2354 33.9449 35.29 29.4588C36.0153 28.9794 36.8105 28.6043 37.5831 28.2088C37.9796 27.9998 38.4708 27.9586 38.6919 28.4856C38.9332 28.9904 38.6495 29.302 38.1674 29.5144C32.7362 31.8556 28.6825 35.8992 24.8589 40.2336C22.8547 42.4796 21.1165 44.8864 19.6691 47.5172C19.4935 47.8459 19.3405 48.1951 19.1695 48.6093Z" fill="#F9F9F9"/>
</g>
<defs>
<clipPath id="clip0_388_136">
<rect width="31.1579" height="5.86169" fill="white" transform="translate(14 48.0366) rotate(-47.6761)"/>
</clipPath>
</defs>
</svg>
