<svg width="1920" height="236" viewBox="0 0 1920 236" fill="none" xmlns="http://www.w3.org/2000/svg">
<path d="M66.548 186L38.276 52.576L34.432 13.268H51.668L85.644 166.408L81.924 186H66.548ZM-28.064 186L-57.7 12.4H-26.08L-6.116 165.416L-3.264 186H-28.064ZM-6.24 186L-9.216 166.408L24.884 13.268H42.368L39.268 52.576L10.128 186H-6.24ZM78.948 186L82.42 165.416L102.88 12.4H134.5L104.74 186H78.948ZM212.808 188.728C204.872 188.728 197.143 187.405 189.62 184.76C182.097 182.115 175.319 178.105 169.284 172.732C163.332 167.359 158.579 160.621 155.024 152.52C151.469 144.336 149.692 134.747 149.692 123.752C149.692 112.757 151.469 103.209 155.024 95.108C158.579 87.0067 163.373 80.2693 169.408 74.896C175.443 69.5227 182.221 65.5547 189.744 62.992C197.349 60.3467 205.161 59.024 213.18 59.024C221.447 59.024 229.341 60.264 236.864 62.744C244.387 65.224 251.083 68.944 256.952 73.904C262.821 78.864 267.409 85.1053 270.716 92.628C274.105 100.151 275.8 108.913 275.8 118.916C275.8 120.569 275.717 122.429 275.552 124.496C275.387 126.563 275.18 128.34 274.932 129.828H173.624V111.352H244.552C244.552 111.021 244.552 110.773 244.552 110.608C244.552 110.443 244.552 110.153 244.552 109.74C244.552 104.119 243.147 99.2 240.336 94.984C237.608 90.6853 233.929 87.3373 229.3 84.94C224.671 82.5427 219.463 81.344 213.676 81.344C209.625 81.344 205.575 82.1707 201.524 83.824C197.556 85.3947 193.96 87.8747 190.736 91.264C187.595 94.5707 185.073 98.9107 183.172 104.284C181.271 109.575 180.32 115.981 180.32 123.504C180.32 132.763 181.849 140.575 184.908 146.94C188.049 153.305 192.183 158.141 197.308 161.448C202.516 164.672 208.22 166.284 214.42 166.284C220.124 166.284 224.96 165.333 228.928 163.432C232.979 161.531 236.203 159.257 238.6 156.612C241.08 153.967 242.816 151.404 243.808 148.924L270.964 162.192C268.897 165.912 266.087 169.384 262.532 172.608C259.06 175.749 254.885 178.56 250.008 181.04C245.131 183.437 239.592 185.297 233.392 186.62C227.192 188.025 220.331 188.728 212.808 188.728ZM600.006 186V12.4H648.738C654.607 12.4 660.518 12.896 666.47 13.888C672.504 14.7973 678.332 16.4093 683.954 18.724C689.575 21.0387 694.783 24.2627 699.578 28.396C704.455 32.5293 708.754 37.82 712.474 44.268C716.194 50.6333 719.046 58.3627 721.03 67.456C723.096 76.4667 724.13 87.048 724.13 99.2C724.13 111.352 723.096 121.975 721.03 131.068C719.046 140.079 716.194 147.808 712.474 154.256C708.754 160.621 704.455 165.871 699.578 170.004C694.783 174.137 689.575 177.361 683.954 179.676C678.332 181.991 672.504 183.644 666.47 184.636C660.518 185.545 654.607 186 648.738 186H600.006ZM630.014 163.432H646.382C653.078 163.432 659.278 162.399 664.982 160.332C670.768 158.183 675.77 154.669 679.986 149.792C684.202 144.915 687.467 138.343 689.782 130.076C692.179 121.809 693.378 111.517 693.378 99.2C693.378 86.8827 692.179 76.5907 689.782 68.324C687.467 60.0573 684.202 53.4853 679.986 48.608C675.77 43.7307 670.768 40.2587 664.982 38.192C659.278 36.0427 653.078 34.968 646.382 34.968H630.014V163.432ZM820.699 188.728C812.763 188.728 805.033 187.405 797.511 184.76C789.988 182.115 783.209 178.105 777.175 172.732C771.223 167.359 766.469 160.621 762.915 152.52C759.36 144.336 757.583 134.747 757.583 123.752C757.583 112.757 759.36 103.209 762.915 95.108C766.469 87.0067 771.264 80.2693 777.299 74.896C783.333 69.5227 790.112 65.5547 797.635 62.992C805.24 60.3467 813.052 59.024 821.071 59.024C829.337 59.024 837.232 60.264 844.755 62.744C852.277 65.224 858.973 68.944 864.843 73.904C870.712 78.864 875.3 85.1053 878.607 92.628C881.996 100.151 883.691 108.913 883.691 118.916C883.691 120.569 883.608 122.429 883.443 124.496C883.277 126.563 883.071 128.34 882.823 129.828H781.515V111.352H852.443C852.443 111.021 852.443 110.773 852.443 110.608C852.443 110.443 852.443 110.153 852.443 109.74C852.443 104.119 851.037 99.2 848.227 94.984C845.499 90.6853 841.82 87.3373 837.191 84.94C832.561 82.5427 827.353 81.344 821.567 81.344C817.516 81.344 813.465 82.1707 809.415 83.824C805.447 85.3947 801.851 87.8747 798.627 91.264C795.485 94.5707 792.964 98.9107 791.063 104.284C789.161 109.575 788.211 115.981 788.211 123.504C788.211 132.763 789.74 140.575 792.799 146.94C795.94 153.305 800.073 158.141 805.199 161.448C810.407 164.672 816.111 166.284 822.311 166.284C828.015 166.284 832.851 165.333 836.819 163.432C840.869 161.531 844.093 159.257 846.491 156.612C848.971 153.967 850.707 151.404 851.699 148.924L878.855 162.192C876.788 165.912 873.977 169.384 870.423 172.608C866.951 175.749 862.776 178.56 857.899 181.04C853.021 183.437 847.483 185.297 841.283 186.62C835.083 188.025 828.221 188.728 820.699 188.728ZM954.064 186L912.896 62H944.64L975.888 161.572H978.12L1009.37 62H1041.11L999.944 186H954.064ZM1135.54 188.728C1127.61 188.728 1119.88 187.405 1112.35 184.76C1104.83 182.115 1098.05 178.105 1092.02 172.732C1086.07 167.359 1081.31 160.621 1077.76 152.52C1074.2 144.336 1072.43 134.747 1072.43 123.752C1072.43 112.757 1074.2 103.209 1077.76 95.108C1081.31 87.0067 1086.11 80.2693 1092.14 74.896C1098.18 69.5227 1104.96 65.5547 1112.48 62.992C1120.08 60.3467 1127.9 59.024 1135.91 59.024C1144.18 59.024 1152.08 60.264 1159.6 62.744C1167.12 65.224 1173.82 68.944 1179.69 73.904C1185.56 78.864 1190.14 85.1053 1193.45 92.628C1196.84 100.151 1198.53 108.913 1198.53 118.916C1198.53 120.569 1198.45 122.429 1198.29 124.496C1198.12 126.563 1197.91 128.34 1197.67 129.828H1096.36V111.352H1167.29C1167.29 111.021 1167.29 110.773 1167.29 110.608C1167.29 110.443 1167.29 110.153 1167.29 109.74C1167.29 104.119 1165.88 99.2 1163.07 94.984C1160.34 90.6853 1156.66 87.3373 1152.03 84.94C1147.4 82.5427 1142.2 81.344 1136.41 81.344C1132.36 81.344 1128.31 82.1707 1124.26 83.824C1120.29 85.3947 1116.69 87.8747 1113.47 91.264C1110.33 94.5707 1107.81 98.9107 1105.91 104.284C1104 109.575 1103.05 115.981 1103.05 123.504C1103.05 132.763 1104.58 140.575 1107.64 146.94C1110.78 153.305 1114.92 158.141 1120.04 161.448C1125.25 164.672 1130.95 166.284 1137.15 166.284C1142.86 166.284 1147.69 165.333 1151.66 163.432C1155.71 161.531 1158.94 159.257 1161.33 156.612C1163.81 153.967 1165.55 151.404 1166.54 148.924L1193.7 162.192C1191.63 165.912 1188.82 169.384 1185.27 172.608C1181.79 175.749 1177.62 178.56 1172.74 181.04C1167.86 183.437 1162.33 185.297 1156.13 186.62C1149.93 188.025 1143.06 188.728 1135.54 188.728ZM1225.04 186V163.432H1261.75V22.568H1231.49V-1.4782e-05H1291.88V163.432H1329.33V186H1225.04ZM1421.09 188.728C1415.47 188.728 1409.72 187.984 1403.85 186.496C1397.98 185.091 1392.28 182.817 1386.74 179.676C1381.28 176.535 1376.41 172.443 1372.11 167.4C1367.81 162.275 1364.38 156.116 1361.82 148.924C1359.25 141.732 1357.97 133.341 1357.97 123.752C1357.97 114.245 1359.25 105.896 1361.82 98.704C1364.38 91.512 1367.81 85.3947 1372.11 80.352C1376.41 75.3093 1381.28 71.2173 1386.74 68.076C1392.28 64.9347 1397.98 62.6613 1403.85 61.256C1409.72 59.768 1415.47 59.024 1421.09 59.024C1426.71 59.024 1432.45 59.768 1438.32 61.256C1444.19 62.6613 1449.86 64.9347 1455.31 68.076C1460.77 71.2173 1465.64 75.3093 1469.94 80.352C1474.32 85.3947 1477.76 91.512 1480.24 98.704C1482.8 105.896 1484.08 114.245 1484.08 123.752C1484.08 133.341 1482.8 141.732 1480.24 148.924C1477.76 156.116 1474.32 162.275 1469.94 167.4C1465.64 172.443 1460.77 176.535 1455.31 179.676C1449.86 182.817 1444.19 185.091 1438.32 186.496C1432.45 187.984 1426.71 188.728 1421.09 188.728ZM1421.09 166.284C1424.89 166.284 1428.69 165.54 1432.5 164.052C1436.38 162.481 1439.89 160.084 1443.04 156.86C1446.26 153.553 1448.82 149.172 1450.72 143.716C1452.62 138.26 1453.58 131.605 1453.58 123.752C1453.58 115.981 1452.62 109.409 1450.72 104.036C1448.82 98.58 1446.26 94.1987 1443.04 90.892C1439.89 87.5853 1436.38 85.188 1432.5 83.7C1428.69 82.212 1424.89 81.468 1421.09 81.468C1417.28 81.468 1413.44 82.212 1409.56 83.7C1405.75 85.188 1402.24 87.5853 1399.02 90.892C1395.87 94.1987 1393.31 98.58 1391.33 104.036C1389.43 109.409 1388.48 115.981 1388.48 123.752C1388.48 131.605 1389.43 138.26 1391.33 143.716C1393.31 149.172 1395.87 153.553 1399.02 156.86C1402.24 160.084 1405.75 162.481 1409.56 164.052C1413.44 165.54 1417.28 166.284 1421.09 166.284ZM1743.43 188.728C1735.5 188.728 1727.77 187.405 1720.24 184.76C1712.72 182.115 1705.94 178.105 1699.91 172.732C1693.96 167.359 1689.2 160.621 1685.65 152.52C1682.09 144.336 1680.32 134.747 1680.32 123.752C1680.32 112.757 1682.09 103.209 1685.65 95.108C1689.2 87.0067 1694 80.2693 1700.03 74.896C1706.07 69.5227 1712.85 65.5547 1720.37 62.992C1727.97 60.3467 1735.79 59.024 1743.8 59.024C1752.07 59.024 1759.97 60.264 1767.49 62.744C1775.01 65.224 1781.71 68.944 1787.58 73.904C1793.45 78.864 1798.03 85.1053 1801.34 92.628C1804.73 100.151 1806.42 108.913 1806.42 118.916C1806.42 120.569 1806.34 122.429 1806.18 124.496C1806.01 126.563 1805.8 128.34 1805.56 129.828H1704.25V111.352H1775.18C1775.18 111.021 1775.18 110.773 1775.18 110.608C1775.18 110.443 1775.18 110.153 1775.18 109.74C1775.18 104.119 1773.77 99.2 1770.96 94.984C1768.23 90.6853 1764.55 87.3373 1759.92 84.94C1755.3 82.5427 1750.09 81.344 1744.3 81.344C1740.25 81.344 1736.2 82.1707 1732.15 83.824C1728.18 85.3947 1724.58 87.8747 1721.36 91.264C1718.22 94.5707 1715.7 98.9107 1713.8 104.284C1711.9 109.575 1710.94 115.981 1710.94 123.504C1710.94 132.763 1712.47 140.575 1715.53 146.94C1718.67 153.305 1722.81 158.141 1727.93 161.448C1733.14 164.672 1738.84 166.284 1745.04 166.284C1750.75 166.284 1755.58 165.333 1759.55 163.432C1763.6 161.531 1766.83 159.257 1769.22 156.612C1771.7 153.967 1773.44 151.404 1774.43 148.924L1801.59 162.192C1799.52 165.912 1796.71 169.384 1793.16 172.608C1789.68 175.749 1785.51 178.56 1780.63 181.04C1775.76 183.437 1770.22 185.297 1764.02 186.62C1757.82 188.025 1750.96 188.728 1743.43 188.728ZM1853.39 186V163.432H1878.57V84.568H1853.39V62H1902.25L1908.57 92.132V163.432H1937.47V186H1853.39ZM1907.95 114.08L1897.17 109.12C1897.25 103.664 1898.28 98.456 1900.27 93.496C1902.25 88.4533 1904.94 83.8653 1908.33 79.732C1911.72 75.516 1915.64 71.8787 1920.11 68.82C1924.57 65.6787 1929.32 63.2813 1934.37 61.628C1939.41 59.892 1944.49 59.024 1949.62 59.024C1955.4 59.024 1959.7 59.52 1962.51 60.512C1965.41 61.4213 1967.27 62.2067 1968.09 62.868L1961.65 88.04C1960.98 87.4613 1959.33 86.7587 1956.69 85.932C1954.04 85.1053 1950.49 84.692 1946.02 84.692C1941.64 84.692 1937.38 85.5187 1933.25 87.172C1929.12 88.8253 1925.27 91.0573 1921.72 93.868C1918.25 96.6787 1915.27 99.82 1912.79 103.292C1910.39 106.764 1908.78 110.36 1907.95 114.08Z" fill="#090909"/>
<path d="M318.057 186V-1.4782e-05H348.313V158.844L344.593 186H318.057ZM384.645 188.728C376.874 188.728 369.971 187.033 363.937 183.644C357.902 180.255 352.818 175.915 348.685 170.624C344.551 165.333 341.41 159.712 339.261 153.76C337.194 147.725 336.161 142.063 336.161 136.772L347.693 132.928C348.023 136.979 348.933 140.947 350.421 144.832C351.909 148.717 353.893 152.189 356.373 155.248C358.935 158.224 361.911 160.621 365.301 162.44C368.69 164.176 372.41 165.044 376.461 165.044C382.247 165.044 387.497 163.515 392.209 160.456C397.003 157.397 400.806 152.809 403.617 146.692C406.427 140.575 407.833 132.928 407.833 123.752C407.833 114.576 406.469 106.971 403.741 100.936C401.095 94.9013 397.458 90.396 392.829 87.42C388.199 84.444 383.033 82.956 377.329 82.956C373.195 82.956 369.434 83.7827 366.045 85.436C362.738 87.0893 359.803 89.3213 357.241 92.132C354.678 94.86 352.529 98.0013 350.793 101.556C349.139 105.028 347.941 108.541 347.197 112.096L336.533 108.252C336.533 103.044 337.607 97.6293 339.757 92.008C341.989 86.304 345.213 80.972 349.429 76.012C353.645 71.052 358.811 67.0427 364.929 63.984C371.046 60.8427 378.031 59.272 385.885 59.272C394.813 59.272 403.245 61.5453 411.181 66.092C419.117 70.6387 425.523 77.6653 430.401 87.172C435.361 96.6787 437.841 108.872 437.841 123.752C437.841 134.912 436.353 144.584 433.377 152.768C430.401 160.952 426.35 167.689 421.225 172.98C416.182 178.271 410.478 182.239 404.113 184.884C397.83 187.447 391.341 188.728 384.645 188.728Z" fill="#0E0E06"/>
<path d="M1523.86 235.6V62H1550.52L1553.86 83.824V235.6H1523.86ZM1590.44 188.728C1582.59 188.728 1575.65 187.033 1569.61 183.644C1563.58 180.255 1558.49 175.915 1554.36 170.624C1550.23 165.333 1547.13 159.712 1545.06 153.76C1542.99 147.725 1541.96 142.063 1541.96 136.772L1553.49 132.928C1553.82 136.979 1554.73 140.947 1556.22 144.832C1557.71 148.717 1559.69 152.189 1562.17 155.248C1564.73 158.224 1567.67 160.621 1570.98 162.44C1574.37 164.176 1578.13 165.044 1582.26 165.044C1588.05 165.044 1593.3 163.515 1598.01 160.456C1602.8 157.397 1606.61 152.809 1609.42 146.692C1612.23 140.575 1613.63 132.928 1613.63 123.752C1613.63 114.576 1612.27 106.971 1609.54 100.936C1606.81 94.9013 1603.13 90.396 1598.5 87.42C1593.96 84.444 1588.83 82.956 1583.13 82.956C1578.99 82.956 1575.23 83.7827 1571.84 85.436C1568.54 87.0893 1565.6 89.3213 1563.04 92.132C1560.48 94.86 1558.33 98.0013 1556.59 101.556C1554.94 105.028 1553.74 108.541 1553 112.096L1542.21 108.252C1542.21 103.044 1543.32 97.6293 1545.56 92.008C1547.79 86.304 1550.97 80.972 1555.1 76.012C1559.32 71.052 1564.49 67.0427 1570.6 63.984C1576.8 60.8427 1583.83 59.272 1591.68 59.272C1600.61 59.272 1609.04 61.5453 1616.98 66.092C1624.92 70.6387 1631.32 77.6653 1636.2 87.172C1641.16 96.6787 1643.64 108.872 1643.64 123.752C1643.64 134.912 1642.15 144.584 1639.18 152.768C1636.2 160.952 1632.15 167.689 1627.02 172.98C1621.98 178.271 1616.28 182.239 1609.91 184.884C1603.63 187.447 1597.14 188.728 1590.44 188.728Z" fill="#0E0E06"/>
</svg>
